<mxfile host="app.diagrams.net" modified="2021-12-27T01:49:56.197Z" agent="5.0 (Macintosh; Intel Mac OS X 10_15_7) AppleWebKit/605.1.15 (KHTML, like Gecko) Version/15.2 Safari/605.1.15" etag="_NVaXkN0MNIkcJ1g1vf4" version="16.1.0" type="github">
  <diagram id="5aGI3u4Uk3V0lVAwT1QT" name="Page-1">
    <mxGraphModel dx="2125" dy="865" grid="1" gridSize="10" guides="1" tooltips="1" connect="1" arrows="1" fold="1" page="1" pageScale="1" pageWidth="827" pageHeight="1169" math="0" shadow="0">
      <root>
        <mxCell id="0" />
        <mxCell id="1" parent="0" />
        <mxCell id="48jm5ZyXqzUocx9abQVC-2" value="&lt;b&gt;&lt;font style=&quot;font-size: 14px&quot;&gt;CPU&lt;/font&gt;&lt;/b&gt;&lt;br&gt;&lt;br&gt;Имеет ограниченный набор примитивных команд, который формирует язык, который называется&amp;nbsp;&lt;b&gt;машинным&lt;/b&gt;" style="whiteSpace=wrap;html=1;aspect=fixed;" parent="1" vertex="1">
          <mxGeometry x="320" y="340" width="200" height="200" as="geometry" />
        </mxCell>
        <mxCell id="A65hLVvP_klmRv-O_LiD-11" style="edgeStyle=orthogonalEdgeStyle;rounded=0;orthogonalLoop=1;jettySize=auto;html=1;exitX=0.5;exitY=0;exitDx=0;exitDy=0;entryX=0.5;entryY=1;entryDx=0;entryDy=0;fontSize=14;" edge="1" parent="1" source="48jm5ZyXqzUocx9abQVC-5" target="48jm5ZyXqzUocx9abQVC-21">
          <mxGeometry relative="1" as="geometry" />
        </mxCell>
        <mxCell id="48jm5ZyXqzUocx9abQVC-5" value="Интрепретатор" style="rounded=0;whiteSpace=wrap;html=1;fontSize=14;" parent="1" vertex="1">
          <mxGeometry x="-120" y="560" width="120" height="60" as="geometry" />
        </mxCell>
        <mxCell id="A65hLVvP_klmRv-O_LiD-4" style="edgeStyle=orthogonalEdgeStyle;rounded=0;orthogonalLoop=1;jettySize=auto;html=1;exitX=1;exitY=0.5;exitDx=0;exitDy=0;entryX=0;entryY=0.5;entryDx=0;entryDy=0;" edge="1" parent="1" source="48jm5ZyXqzUocx9abQVC-6" target="A65hLVvP_klmRv-O_LiD-1">
          <mxGeometry relative="1" as="geometry" />
        </mxCell>
        <mxCell id="48jm5ZyXqzUocx9abQVC-6" value="Транслятор" style="rounded=0;whiteSpace=wrap;html=1;fontSize=14;" parent="1" vertex="1">
          <mxGeometry x="-120" y="350" width="120" height="60" as="geometry" />
        </mxCell>
        <mxCell id="A65hLVvP_klmRv-O_LiD-12" style="edgeStyle=orthogonalEdgeStyle;rounded=0;orthogonalLoop=1;jettySize=auto;html=1;exitX=0.5;exitY=1;exitDx=0;exitDy=0;entryX=0;entryY=0.5;entryDx=0;entryDy=0;fontSize=14;" edge="1" parent="1" source="48jm5ZyXqzUocx9abQVC-7" target="48jm5ZyXqzUocx9abQVC-21">
          <mxGeometry relative="1" as="geometry" />
        </mxCell>
        <mxCell id="A65hLVvP_klmRv-O_LiD-13" style="edgeStyle=orthogonalEdgeStyle;rounded=0;orthogonalLoop=1;jettySize=auto;html=1;exitX=0.5;exitY=0;exitDx=0;exitDy=0;entryX=0;entryY=0.5;entryDx=0;entryDy=0;fontSize=14;" edge="1" parent="1" source="48jm5ZyXqzUocx9abQVC-7" target="48jm5ZyXqzUocx9abQVC-6">
          <mxGeometry relative="1" as="geometry" />
        </mxCell>
        <mxCell id="48jm5ZyXqzUocx9abQVC-7" value="Исходный код" style="rounded=0;whiteSpace=wrap;html=1;fontSize=14;" parent="1" vertex="1">
          <mxGeometry x="-280" y="410" width="120" height="60" as="geometry" />
        </mxCell>
        <mxCell id="A65hLVvP_klmRv-O_LiD-3" style="edgeStyle=orthogonalEdgeStyle;rounded=0;orthogonalLoop=1;jettySize=auto;html=1;exitX=1;exitY=0.5;exitDx=0;exitDy=0;entryX=0;entryY=0.5;entryDx=0;entryDy=0;" edge="1" parent="1" source="48jm5ZyXqzUocx9abQVC-21" target="A65hLVvP_klmRv-O_LiD-1">
          <mxGeometry relative="1" as="geometry" />
        </mxCell>
        <mxCell id="48jm5ZyXqzUocx9abQVC-21" value="Запущенный интерпретатор" style="rounded=0;whiteSpace=wrap;html=1;fontSize=14;" parent="1" vertex="1">
          <mxGeometry x="-120" y="470" width="120" height="60" as="geometry" />
        </mxCell>
        <mxCell id="A65hLVvP_klmRv-O_LiD-6" style="edgeStyle=orthogonalEdgeStyle;rounded=0;orthogonalLoop=1;jettySize=auto;html=1;exitX=1;exitY=0.5;exitDx=0;exitDy=0;fontSize=14;" edge="1" parent="1" source="A65hLVvP_klmRv-O_LiD-1" target="48jm5ZyXqzUocx9abQVC-2">
          <mxGeometry relative="1" as="geometry" />
        </mxCell>
        <mxCell id="A65hLVvP_klmRv-O_LiD-1" value="&lt;font style=&quot;font-size: 14px&quot;&gt;Машинный код&lt;/font&gt;" style="rounded=0;whiteSpace=wrap;html=1;" vertex="1" parent="1">
          <mxGeometry x="120" y="410" width="120" height="60" as="geometry" />
        </mxCell>
      </root>
    </mxGraphModel>
  </diagram>
</mxfile>
